<svg xmlns="http://www.w3.org/2000/svg" viewBox="0 0 64 64">
  <defs>
    <linearGradient id="bg" x1="0" y1="0" x2="1" y2="1">
      <stop offset="0%" stop-color="#12343b"/>
      <stop offset="100%" stop-color="#1f6f78"/>
    </linearGradient>
  </defs>
  <rect width="64" height="64" rx="14" fill="url(#bg)"/>
  <path d="M15 12h22a4 4 0 0 1 4 4v35a4 4 0 0 1-4 4H15a4 4 0 0 1-4-4V16a4 4 0 0 1 4-4Z" fill="#ffffff"/>
  <rect x="18" y="20" width="17" height="12" rx="2" fill="#1f6f78"/>
  <path d="M43 22h4a6 6 0 0 1 6 6v14a6 6 0 0 1-6 6h-2v-4h2a2 2 0 0 0 2-2V28a2 2 0 0 0-2-2h-4Z" fill="#ffffff"/>
  <path d="M30 41c3.2 0 5.8 2.6 5.8 5.8S33.2 52 30 52s-5.8-2.6-5.8-5.2 2.6-5.8 5.8-5.8Z" fill="#00d084"/>
</svg>
